<?xml version="1.0" standalone="no"?>
<!DOCTYPE svg PUBLIC "-//W3C//DTD SVG 20010904//EN"
 "http://www.w3.org/TR/2001/REC-SVG-20010904/DTD/svg10.dtd">
<svg version="1.0" xmlns="http://www.w3.org/2000/svg"
 width="371.000000pt" height="371.000000pt" viewBox="0 0 371.000000 371.000000"
 preserveAspectRatio="xMidYMid meet">
<metadata>
Created by potrace 1.11, written by Peter Selinger 2001-2013
</metadata>
<g transform="translate(0.000000,371.000000) scale(0.100000,-0.100000)"
fill="#000000" stroke="none">
<path d="M2425 3310 c-3 -6 1 -7 9 -4 18 7 21 14 7 14 -6 0 -13 -4 -16 -10z"/>
<path d="M2341 3278 c-1 -9 -13 -26 -27 -37 -15 -12 -21 -21 -15 -21 7 0 9 -5
6 -10 -5 -8 -12 -7 -23 2 -16 12 -16 11 -2 -6 14 -18 13 -19 -3 -13 -12 5 -16
3 -11 -5 5 -8 1 -9 -12 -4 -10 4 -15 4 -11 0 4 -4 2 -13 -3 -20 -6 -6 -10 -16
-9 -20 4 -24 -4 -31 -31 -29 -24 2 -28 0 -21 -14 10 -20 3 -43 -11 -35 -6 4
-8 2 -4 -4 3 -6 2 -13 -4 -17 -5 -3 -10 -1 -10 4 0 6 -5 11 -11 11 -8 0 -9 -4
0 -13 6 -8 8 -17 4 -20 -9 -10 -25 -9 -19 1 3 5 -1 9 -9 9 -18 0 -28 -24 -13
-33 7 -4 8 -3 4 4 -7 12 6 17 17 6 9 -10 -4 -34 -16 -27 -5 3 -7 1 -3 -5 3 -6
2 -13 -4 -17 -9 -5 -14 6 -12 26 1 3 -6 6 -14 6 -10 0 -11 -4 -4 -11 14 -14
13 -29 -2 -20 -10 6 -10 4 0 -8 11 -14 9 -19 -10 -32 -21 -15 -24 -15 -35 1
-14 19 -18 6 -4 -15 9 -14 31 -13 44 3 5 6 7 4 4 -5 -2 -8 -9 -16 -15 -16 -7
-1 -13 -2 -14 -4 -2 -1 -11 -3 -21 -5 -13 -2 -17 1 -13 10 3 8 1 17 -5 20 -5
4 -9 3 -8 -2 5 -30 -2 -45 -21 -40 -11 3 -20 2 -20 -3 0 -8 -29 -19 -80 -31
-8 -2 -21 -10 -29 -17 -7 -7 -20 -11 -27 -8 -8 3 -14 0 -14 -7 0 -8 -4 -6 -10
3 -9 14 -15 7 -11 -14 1 -5 -5 -4 -13 4 -14 11 -16 9 -17 -11 0 -22 -1 -22 -8
-5 -5 14 -10 16 -15 8 -4 -7 -4 -12 0 -12 4 0 -1 -9 -11 -20 -19 -21 -37 -18
-28 5 3 8 1 15 -5 15 -15 0 -22 -26 -9 -39 6 -6 8 -11 5 -11 -4 0 -14 7 -23
16 -20 20 -33 11 -15 -11 7 -8 8 -15 2 -15 -12 0 -24 29 -16 41 3 5 1 9 -5 9
-19 0 -22 -20 -5 -47 14 -23 11 -21 -14 7 -17 19 -31 30 -32 23 0 -6 4 -15 10
-18 5 -3 15 -16 21 -28 l11 -22 -19 21 c-11 11 -26 30 -32 42 -6 12 -16 22
-22 22 -6 0 -7 -6 -3 -12 4 -7 -2 -5 -14 5 -23 21 -39 16 -52 -17 -7 -16 -9
-17 -9 -4 -1 9 6 24 15 32 13 14 13 16 1 16 -8 0 -22 -11 -31 -25 -11 -17 -13
-25 -5 -25 7 0 10 -3 6 -6 -3 -3 -10 -3 -16 1 -7 4 -5 14 5 31 9 13 12 24 6
24 -6 0 -16 -13 -24 -30 -7 -16 -16 -30 -21 -30 -4 0 -1 13 7 29 15 28 15 29
-10 29 -19 0 -22 -3 -13 -14 8 -10 8 -14 0 -14 -6 0 -11 5 -11 12 0 6 -3 8 -7
4 -4 -4 -8 -15 -8 -24 0 -12 -8 -17 -25 -16 -39 2 -42 3 -34 15 4 8 9 7 15 -2
6 -10 9 -10 9 -2 0 6 -4 14 -10 18 -5 3 -7 12 -3 20 6 17 -8 20 -24 4 -8 -8
-13 -8 -17 0 -4 6 0 11 9 11 12 0 9 7 -12 26 l-28 26 29 -21 c16 -12 34 -21
40 -21 6 0 4 5 -4 11 -12 8 -12 12 -2 16 10 4 9 9 -5 19 -17 13 -17 14 1 7 15
-5 18 -3 13 10 -5 14 -3 16 12 8 10 -6 22 -7 26 -3 3 4 5 0 3 -8 -2 -9 5 -15
19 -16 15 -1 20 3 16 15 -4 14 -3 14 5 1 8 -10 8 -18 0 -27 -6 -7 -7 -13 -2
-13 5 0 -2 -7 -14 -16 -29 -20 -28 -39 1 -19 13 8 26 12 30 9 11 -12 95 -10
90 2 -2 5 -18 10 -36 9 -46 -1 -58 5 -52 26 7 21 -29 79 -48 79 -9 0 -9 -2 0
-8 9 -5 6 -11 -9 -21 -18 -11 -20 -11 -15 4 4 9 3 14 -3 10 -6 -3 -10 1 -10
10 0 9 4 14 9 10 5 -3 12 -2 15 3 2 4 -6 8 -19 8 -20 0 -22 -3 -14 -23 6 -17
5 -21 -6 -16 -8 3 -12 10 -8 17 4 7 1 7 -9 -1 -8 -7 -18 -10 -21 -6 -4 3 0 11
9 18 14 10 14 13 -3 26 -16 13 -17 12 -5 -2 10 -14 10 -18 -3 -23 -9 -3 -13
-10 -10 -16 3 -5 -1 -10 -9 -10 -9 0 -16 4 -16 9 0 14 -29 21 -36 9 -4 -7 -3
-8 4 -4 7 4 12 3 12 -3 0 -5 8 -12 18 -15 18 -6 27 -36 10 -36 -4 0 -8 3 -8 8
0 4 -10 13 -22 21 -22 13 -23 13 -5 -6 9 -11 14 -23 10 -28 -5 -4 -3 -5 3 -2
7 4 15 0 18 -9 5 -12 1 -14 -17 -10 -12 3 -16 3 -9 0 6 -3 10 -10 7 -15 -4 -5
2 -6 11 -2 13 5 15 3 9 -8 -7 -11 -5 -11 10 1 16 14 17 13 11 -8 -5 -14 -3
-22 4 -22 6 0 8 -5 5 -10 -5 -8 -11 -8 -20 0 -10 8 -15 8 -21 -1 -5 -8 -3 -9
5 -5 8 5 14 0 18 -13 3 -12 10 -21 15 -21 5 0 6 -5 2 -11 -5 -8 -13 -4 -26 12
-15 19 -17 19 -10 4 13 -25 -3 -56 -23 -49 -8 4 -15 1 -15 -4 0 -11 -29 -9
-53 3 -6 4 -3 -1 7 -9 25 -20 29 -43 9 -50 -11 -5 -13 -1 -8 15 5 15 4 19 -4
15 -6 -4 -11 -13 -11 -21 0 -8 -5 -17 -12 -21 -8 -5 -9 -2 -5 10 4 11 3 15 -4
11 -6 -4 -8 -13 -5 -20 3 -8 -2 -19 -11 -27 -14 -11 -15 -10 -9 8 5 16 2 20
-18 20 -14 0 -22 -4 -20 -8 3 -5 10 -6 15 -3 5 4 9 -1 9 -9 0 -18 -16 -21 -25
-6 -4 6 -14 9 -23 8 -9 -2 -16 3 -15 10 2 6 -2 12 -7 12 -10 0 -14 -13 -11
-37 2 -14 -33 -35 -43 -26 -3 3 -6 1 -6 -5 0 -16 23 -15 38 0 9 9 12 9 12 -1
0 -7 5 -9 11 -5 8 4 8 8 0 13 -6 4 -4 11 8 18 11 7 23 8 32 2 11 -7 9 -9 -8
-9 -16 0 -21 -4 -16 -16 5 -13 8 -13 15 -2 8 11 10 11 15 -1 4 -10 9 -8 18 9
8 15 15 19 19 11 4 -6 2 -11 -4 -11 -6 0 -8 -4 -5 -10 11 -17 24 -11 20 10 -3
15 1 19 18 16 12 -1 22 -9 22 -16 0 -7 9 -16 19 -20 19 -6 19 -7 0 -14 -17 -6
-17 -9 -4 -19 20 -16 48 -53 33 -44 -6 4 -14 2 -16 -3 -3 -6 -4 -5 -3 2 3 14
-54 81 -62 73 -3 -3 3 -14 13 -25 10 -11 14 -20 9 -20 -5 0 -2 -5 6 -11 10 -7
11 -9 2 -7 -8 2 -13 7 -13 11 2 15 -41 52 -62 53 -23 2 -50 -14 -43 -25 7 -11
-12 -36 -21 -28 -4 5 -1 12 7 17 8 6 11 10 6 10 -5 0 -3 7 4 15 8 10 9 15 1
15 -17 0 -42 -45 -35 -64 3 -9 11 -13 18 -10 6 4 4 -1 -6 -11 -16 -18 -39 -13
-37 8 0 9 2 9 6 0 2 -7 9 -13 14 -13 5 0 3 11 -3 25 l-11 25 -18 -30 c-21 -35
-31 -37 -50 -12 -7 9 -9 14 -5 10 5 -4 16 -2 25 5 14 11 14 10 2 -5 -8 -11 -9
-18 -3 -18 6 0 17 12 25 28 7 15 18 26 23 25 6 -1 15 7 22 18 16 25 1 24 -34
-3 -15 -13 -25 -17 -20 -10 4 6 2 12 -3 12 -6 0 -11 5 -11 11 0 8 5 8 15 -1
13 -11 15 -9 13 11 -2 15 2 24 12 24 8 0 15 7 15 15 0 8 4 21 9 28 7 11 4 11
-13 0 -12 -7 -17 -14 -11 -16 5 -2 10 -8 10 -13 0 -6 -4 -8 -9 -5 -14 9 -42
-5 -34 -17 3 -5 1 -7 -4 -4 -16 10 -25 -23 -12 -40 9 -11 9 -17 -1 -26 -10
-10 -12 -9 -7 5 3 10 2 20 -3 23 -4 3 -10 0 -12 -7 -3 -8 -9 -8 -24 1 -15 10
-15 11 -2 7 11 -3 22 2 28 14 13 24 13 30 0 30 -5 0 -10 -7 -10 -16 0 -10 -6
-14 -14 -11 -8 3 -20 -1 -26 -8 -10 -12 -9 -16 4 -21 9 -4 21 -15 27 -26 7
-13 7 -18 1 -14 -6 3 -13 0 -16 -6 -3 -7 -3 -2 0 12 4 14 3 22 -1 18 -4 -3
-19 8 -35 25 l-29 32 -28 -27 c-16 -16 -33 -28 -37 -28 -5 0 2 9 15 20 13 10
18 19 11 20 -6 0 -21 -9 -32 -20 -11 -11 -20 -16 -20 -11 0 6 4 12 9 16 9 5
11 45 3 45 -11 0 -62 -36 -62 -43 0 -5 11 -2 25 7 14 9 25 13 25 8 0 -5 -11
-15 -25 -22 -13 -7 -23 -17 -22 -23 1 -5 -5 -12 -13 -14 -10 -3 -11 -2 -4 4 6
4 10 17 8 28 -2 11 4 26 13 33 30 22 24 48 -10 43 -4 0 -7 3 -7 9 0 5 5 10 12
10 6 0 8 3 5 6 -4 4 -13 1 -21 -5 -11 -10 -17 -8 -25 6 -6 11 -11 13 -11 5 0
-7 -4 -11 -8 -8 -4 2 -8 -10 -8 -28 0 -27 4 -33 21 -33 12 0 22 5 22 12 0 7
-6 11 -14 8 -7 -3 -13 -1 -13 4 0 5 13 9 28 9 16 0 29 -5 29 -12 0 -7 -7 -10
-14 -7 -8 3 -13 2 -12 -3 4 -23 -2 -35 -13 -28 -20 12 -49 12 -45 0 2 -6 13
-10 23 -8 19 3 19 3 0 -11 -16 -12 -17 -17 -6 -37 18 -34 58 -75 66 -67 3 3
-1 14 -10 23 -27 27 -49 64 -42 71 3 3 6 2 6 -4 0 -15 36 -54 43 -46 4 3 13 0
22 -7 12 -10 16 -9 21 4 3 9 11 16 16 16 6 0 5 -6 -2 -15 -10 -12 -10 -18 0
-30 18 -22 3 -18 -22 5 -35 32 -45 23 -12 -12 16 -17 23 -28 15 -23 -9 5 -12
3 -9 -6 3 -8 11 -13 17 -11 19 4 83 -50 77 -64 -3 -7 -1 -16 3 -19 17 -10 21
28 6 45 -8 9 -15 20 -15 25 0 4 8 -1 17 -12 10 -11 24 -19 31 -17 7 1 8 0 2
-3 -5 -2 -10 -9 -10 -14 0 -6 7 -6 18 -1 9 5 23 7 30 5 8 -3 10 1 6 14 -6 14
-4 15 6 6 15 -14 6 -32 -18 -32 -46 -2 -53 -5 -46 -20 3 -9 8 -22 11 -28 3 -7
0 -13 -7 -13 -6 0 -9 4 -6 8 2 4 1 14 -5 22 -7 13 -9 13 -9 0 0 -13 -2 -13
-11 0 -9 13 -10 12 -5 -2 3 -11 -2 -19 -14 -23 -10 -3 -24 -13 -32 -23 -12
-15 -11 -16 5 -3 9 7 17 10 17 5 0 -5 4 -3 9 5 12 18 32 5 25 -17 -5 -14 -3
-14 10 2 9 11 19 16 23 13 3 -4 3 -7 -1 -7 -4 0 -2 -9 4 -21 7 -11 17 -18 24
-16 7 3 23 -1 37 -9 13 -7 18 -13 12 -14 -7 0 -13 -5 -13 -11 0 -8 4 -8 14 0
10 8 16 9 21 1 3 -5 1 -10 -4 -10 -6 0 -11 -5 -11 -11 0 -8 4 -9 13 0 8 6 17
8 20 4 4 -3 -1 -12 -11 -20 -15 -13 -15 -13 5 -4 26 13 36 14 29 3 -2 -4 2
-18 10 -32 7 -14 13 -20 14 -13 0 6 9 11 20 10 12 -1 18 -7 16 -14 -3 -8 1
-10 12 -6 15 6 14 3 -2 -16 -14 -15 -16 -25 -9 -32 8 -8 13 -7 18 2 5 8 4 10
-3 5 -7 -4 -12 -3 -12 3 0 18 16 20 38 5 12 -8 22 -23 22 -32 0 -14 2 -15 10
-2 6 9 5 17 -1 21 -6 3 -2 9 9 11 19 5 19 4 6 -27 -7 -18 -10 -36 -6 -41 4 -5
0 -3 -9 4 -9 6 -19 8 -24 4 -4 -4 -4 3 -1 15 7 23 -8 40 -20 22 -4 -8 -3 -9 4
-5 7 4 12 2 12 -3 0 -6 -8 -11 -17 -11 -17 -1 -17 -1 0 -11 9 -5 17 -15 17
-21 0 -7 -6 -6 -15 2 -9 7 -18 10 -22 6 -3 -3 -1 -6 5 -6 7 0 12 -5 12 -10 0
-6 -6 -9 -12 -8 -7 2 -12 -4 -10 -13 1 -9 -5 -16 -13 -16 -9 0 -14 6 -11 14 3
8 1 11 -4 8 -6 -3 -10 -2 -10 4 0 5 -9 9 -20 8 -14 -1 -18 -6 -14 -19 4 -13 1
-16 -10 -12 -9 3 -14 9 -11 14 4 7 -13 6 -60 -3 -11 -2 -24 1 -28 7 -6 7 -7 4
-3 -6 3 -10 1 -20 -4 -23 -6 -4 -10 -1 -10 4 0 6 -7 11 -16 11 -9 0 -12 5 -8
13 5 8 2 8 -9 -2 -14 -11 -20 -11 -34 0 -16 13 -17 12 -4 -4 7 -9 19 -17 25
-16 23 3 39 -1 32 -8 -12 -12 -40 -12 -54 0 -17 13 -44 19 -37 7 3 -5 1 -11
-5 -15 -10 -6 -14 7 -11 33 1 6 -4 12 -10 12 -7 0 -9 -3 -6 -7 4 -3 1 -13 -6
-21 -10 -13 -9 -14 2 -8 10 7 12 3 6 -15 -5 -19 -4 -21 4 -9 10 13 11 13 11 0
0 -13 2 -13 11 0 9 13 10 12 5 -3 -5 -14 -2 -16 13 -8 10 6 22 7 26 3 5 -4 5
-1 0 7 -5 10 -4 12 4 7 6 -4 9 -11 6 -16 -3 -4 2 -11 11 -14 22 -8 47 13 39
33 -3 8 -3 12 1 8 4 -4 15 0 25 9 10 9 19 11 23 5 4 -5 -3 -12 -14 -16 -11 -3
-20 -11 -20 -16 0 -12 17 -12 25 1 4 6 11 7 17 4 7 -4 8 -2 4 4 -4 7 1 10 14
7 11 -2 22 0 25 6 10 15 20 10 38 -21 10 -16 25 -36 34 -45 8 -9 13 -18 11
-20 -4 -4 -62 57 -59 63 6 11 -1 14 -9 2 -7 -11 -4 -20 13 -32 19 -14 20 -19
8 -30 -12 -11 -13 -10 -7 6 5 14 2 17 -9 12 -9 -3 -13 -2 -10 4 3 6 1 10 -5
10 -7 0 -9 9 -5 23 6 21 5 21 -9 3 -9 -10 -13 -23 -9 -29 3 -6 1 -7 -5 -3 -6
3 -18 -4 -26 -16 -9 -12 -19 -18 -23 -14 -4 4 0 12 9 17 10 5 15 16 12 24 -4
8 -10 12 -15 9 -5 -3 -6 -10 -3 -16 4 -6 2 -8 -3 -5 -6 4 -14 -1 -18 -10 -4
-12 1 -24 17 -37 20 -16 23 -17 26 -2 2 9 8 16 13 16 6 0 5 -8 -1 -21 -11 -19
-13 -19 -35 -5 -18 12 -25 13 -29 3 -3 -7 -4 -5 -3 4 2 16 -63 82 -72 73 -3
-3 3 -13 14 -21 14 -11 15 -14 4 -10 -9 3 -26 -1 -37 -9 -16 -11 -21 -11 -25
-1 -2 6 -8 9 -12 5 -4 -4 -2 -15 5 -23 11 -13 11 -18 0 -28 -10 -10 -12 -9 -7
5 8 22 -9 33 -17 11 -12 -29 12 -40 45 -21 16 10 27 13 24 8 -3 -6 0 -10 7
-10 8 0 6 -5 -4 -11 -10 -5 -18 -15 -18 -21 0 -7 4 -7 14 1 11 9 15 8 21 -6 5
-10 7 -25 6 -33 -2 -8 0 -12 4 -8 4 4 20 1 35 -7 25 -13 29 -13 34 2 8 19 -12
45 -27 36 -6 -3 -7 -1 -3 6 5 8 12 9 19 2 11 -8 39 9 34 21 -1 2 5 -4 14 -14
9 -9 19 -14 22 -11 4 3 5 -4 2 -15 -5 -26 21 -37 34 -14 6 9 11 13 11 8 0 -6
-12 -23 -27 -38 -36 -38 -22 -36 22 3 27 24 39 29 47 21 8 -8 15 -7 24 6 11
14 15 15 26 3 11 -12 10 -13 -6 -7 -14 5 -17 2 -12 -9 4 -11 2 -14 -6 -9 -8 5
-9 1 -5 -12 6 -15 3 -14 -11 5 l-19 24 -26 -24 c-15 -12 -27 -27 -27 -32 0 -6
8 -3 18 5 19 17 51 35 40 24 -10 -11 29 -51 50 -51 13 0 17 -11 18 -51 0 -28
4 -56 8 -62 4 -7 2 -12 -3 -12 -7 0 -8 -6 -2 -17 5 -10 14 -54 21 -98 39 -262
176 -525 379 -725 116 -115 219 -188 356 -255 200 -96 349 -130 580 -130 156
0 210 6 336 39 240 63 422 168 604 351 193 192 304 395 367 665 26 113 33 361
13 480 -59 358 -241 660 -524 873 -109 82 -199 132 -328 181 -94 36 -265 78
-320 79 -18 0 -30 4 -27 8 2 4 -5 10 -15 14 -12 4 -18 12 -14 21 4 11 9 12 18
4 9 -8 15 -8 20 0 4 6 1 9 -7 8 -7 -2 -12 3 -11 10 5 20 -15 14 -22 -8 -4 -11
-11 -18 -16 -15 -5 4 -5 13 0 23 4 9 6 23 3 31 -3 10 0 11 9 5 12 -7 12 -5 1
9 -8 9 -11 21 -7 26 3 6 -1 24 -10 40 -19 38 -19 42 3 35 13 -4 13 -3 -3 7
-19 12 -19 12 0 21 15 6 12 7 -9 3 -26 -6 -28 -4 -16 10 7 9 19 14 27 11 8 -4
11 -1 8 5 -4 6 -13 8 -21 5 -19 -7 -37 27 -22 42 14 14 19 42 8 42 -5 0 -12
-5 -16 -12 -5 -8 -11 -6 -19 5 -11 15 -13 14 -23 -8 -6 -14 -17 -25 -23 -25
-8 0 -8 4 1 15 6 8 10 20 7 27 -4 9 -6 7 -6 -4z m68 -21 c14 6 14 5 -1 -13
-20 -23 -20 -35 1 -51 15 -11 14 -12 -1 -18 -14 -5 -15 -10 -5 -20 7 -7 17
-10 22 -7 6 3 4 -1 -3 -10 -7 -9 -9 -18 -3 -20 5 -1 11 -10 13 -18 2 -8 7 -18
12 -22 6 -4 4 -13 -3 -22 -11 -12 -11 -16 -1 -16 10 0 10 -3 0 -15 -10 -12
-10 -15 1 -15 9 0 10 -3 4 -8 -19 -13 -15 -31 11 -51 l26 -21 -40 3 c-29 1
-38 6 -34 16 3 9 1 12 -6 7 -6 -3 -18 4 -26 16 -14 20 -14 24 0 39 13 15 13
17 -10 17 -18 0 -23 -5 -19 -17 5 -12 3 -13 -7 -4 -14 13 -5 35 13 31 20 -3
58 13 52 23 -4 5 -14 5 -26 -2 -12 -6 -23 -8 -27 -5 -3 3 0 6 6 6 6 0 10 6 8
13 -1 6 -1 9 1 5 3 -5 9 -8 14 -8 14 0 4 43 -11 48 -9 3 -10 0 -4 -9 6 -12 5
-12 -9 0 -15 12 -19 12 -32 -5 -21 -28 -18 -40 5 -19 11 10 20 13 20 7 0 -7
-4 -12 -10 -12 -5 0 -9 -3 -9 -7 5 -30 -2 -35 -17 -14 -12 17 -13 26 -5 34 16
16 13 31 -4 17 -8 -7 -24 -9 -37 -5 -13 4 -20 4 -15 0 4 -5 0 -19 -8 -31 -8
-13 -11 -25 -7 -27 8 -6 28 13 29 28 1 5 7 11 15 13 9 2 8 0 -2 -7 -8 -6 -11
-11 -6 -11 5 0 2 -8 -7 -18 -16 -18 -14 -32 5 -32 5 0 6 4 3 10 -3 6 1 7 10 4
11 -5 14 -2 9 12 -6 16 -5 17 7 6 12 -11 11 -15 -3 -26 -10 -7 -14 -17 -10
-21 4 -5 -6 -1 -21 9 -28 17 -29 17 -22 -3 3 -12 2 -21 -3 -21 -5 0 -9 12 -8
27 0 14 -5 28 -13 31 -8 3 -11 0 -7 -7 4 -6 2 -9 -6 -6 -9 4 -14 -2 -15 -16
-2 -17 1 -18 13 -9 10 9 14 9 14 1 0 -6 -4 -11 -9 -11 -5 0 -8 -12 -5 -27 3
-21 2 -24 -6 -13 -5 8 -10 11 -10 5 0 -5 -5 -3 -10 5 -5 8 -7 24 -4 35 5 16 4
18 -7 8 -15 -15 -23 -57 -9 -48 5 3 10 1 10 -5 0 -7 -7 -10 -17 -6 -17 6 -17
5 0 -8 9 -7 17 -17 17 -21 0 -4 -6 -3 -12 2 -19 15 -50 12 -44 -3 3 -8 0 -11
-10 -7 -8 3 -14 -1 -14 -8 0 -11 -2 -11 -10 1 -5 9 -5 19 0 26 6 6 6 15 2 19
-4 5 -2 5 4 2 10 -6 60 40 59 54 0 11 55 70 63 66 4 -3 16 1 27 9 10 8 14 14
9 14 -6 0 -16 -6 -23 -12 -11 -10 -12 -10 -7 -1 5 9 2 11 -8 7 -9 -3 -16 -2
-16 4 0 5 8 9 18 9 36 0 41 3 36 26 -3 19 5 29 37 50 39 26 59 28 59 6 0 -6
-10 -7 -22 -4 -19 6 -21 5 -11 -5 7 -7 24 -14 38 -16 l25 -3 -20 30 c-12 16
-26 29 -31 29 -6 0 -7 5 -3 11 5 8 9 8 14 -1 5 -9 13 -5 26 13 11 14 23 22 28
17 5 -5 16 -6 25 -3z m-76 -277 c-3 -3 -8 1 -10 8 -3 6 -9 10 -13 7 -5 -3 -6
-13 -3 -23 5 -13 3 -14 -6 -6 -10 9 -10 16 0 32 12 19 14 19 25 4 7 -9 10 -19
7 -22z m-64 -6 c-6 -8 -15 -12 -18 -8 -3 4 0 9 7 11 6 3 9 10 6 15 -4 7 -2 8
5 4 9 -6 9 -11 0 -22z m94 -7 c3 -8 2 -20 -3 -26 -5 -9 -7 -4 -7 13 0 29 2 32
10 13z m-25 -22 c-3 -3 -9 2 -12 12 -6 14 -5 15 5 6 7 -7 10 -15 7 -18z m-97
1 c5 3 9 0 9 -6 0 -15 -23 -7 -26 8 -1 7 0 8 3 2 2 -5 9 -8 14 -4z m43 -1 c-4
-8 -8 -15 -10 -15 -2 0 -4 7 -4 15 0 8 4 15 10 15 5 0 7 -7 4 -15z m-83 -9 c5
3 9 0 9 -6 0 -15 -23 -7 -26 8 -1 7 0 8 3 2 2 -5 9 -8 14 -4z m-907 -53 c3 -8
2 -11 -3 -8 -5 3 -12 1 -15 -4 -4 -5 -2 -12 4 -16 6 -4 8 -11 4 -16 -9 -15
-33 9 -29 29 2 9 4 20 4 23 2 12 30 5 35 -8z m80 -7 c-7 -19 -25 -22 -21 -3 2
12 19 28 24 23 2 -2 1 -11 -3 -20z m-78 -103 c-2 -9 -8 -19 -14 -21 -7 -2 -3
-11 10 -22 12 -10 29 -15 37 -12 10 4 13 1 8 -11 -19 -47 -18 -52 2 -28 12 12
18 27 15 32 -3 5 0 9 6 9 7 0 9 -7 6 -16 -4 -9 -2 -22 4 -29 8 -9 8 -15 0 -20
-7 -4 -5 -11 5 -21 18 -18 11 -34 -14 -34 -25 0 -33 -11 -20 -27 7 -8 8 -13 1
-13 -5 0 -13 7 -16 15 -5 13 -10 14 -27 5 -22 -12 -35 -8 -25 9 4 6 14 7 24 4
15 -6 15 -5 3 10 -7 9 -9 17 -3 17 5 0 13 -8 16 -17 5 -12 9 -14 18 -5 7 7 21
12 31 12 16 0 17 2 7 15 -11 13 -15 13 -21 3 -6 -9 -9 -9 -9 -1 0 6 7 18 15
27 9 8 11 17 6 21 -14 8 -41 -34 -34 -54 4 -11 1 -10 -10 4 -13 17 -17 17 -32
5 -15 -12 -18 -12 -26 3 -6 9 -15 17 -21 17 -9 0 -9 -3 0 -12 8 -8 8 -17 0
-32 -9 -16 -7 -22 11 -34 27 -18 27 -28 -1 -43 -13 -6 -20 -8 -16 -5 11 13
-36 51 -67 54 -48 4 -55 5 -55 9 0 2 6 10 13 17 10 12 14 10 24 -8 7 -12 12
-15 13 -7 0 11 3 11 15 1 10 -9 15 -9 15 -1 0 10 -13 15 -32 12 -14 -2 -8 17
7 22 8 4 12 15 10 28 -2 12 -2 19 2 15 3 -3 12 -1 20 5 9 9 13 8 13 0 0 -6 -5
-11 -11 -11 -5 0 -7 -5 -3 -11 4 -8 12 -2 21 15 7 14 18 26 24 26 6 0 7 5 3
12 -4 7 -3 8 4 4 7 -4 18 -1 26 6 11 11 11 15 -3 24 -14 11 -14 14 3 33 23 25
25 26 22 4z m219 -22 c3 -6 -3 -9 -14 -8 -11 0 -17 5 -15 9 7 11 22 10 29 -1z
m44 -30 c18 -18 18 -18 -1 -30 -11 -7 -22 -10 -25 -7 -3 3 2 8 11 12 16 6 16
8 0 25 -22 25 -10 25 15 0z m-69 -20 c-12 -23 -25 -27 -36 -9 -5 8 -2 9 10 5
14 -6 17 -3 12 8 -3 9 -2 13 4 10 6 -3 10 -1 10 6 0 7 3 10 6 7 3 -4 1 -16 -6
-27z m33 -2 c-9 -9 -12 -7 -10 9 1 14 5 18 11 12 7 -7 6 -14 -1 -21z m-104 11
c-6 -5 -18 -6 -26 -3 -19 8 -16 11 13 11 17 0 22 -3 13 -8z m-25 -26 c5 -14 4
-15 -9 -4 -17 14 -19 20 -6 20 5 0 12 -7 15 -16z m41 6 c-3 -5 -11 -10 -16
-10 -6 0 -7 5 -4 10 3 6 11 10 16 10 6 0 7 -4 4 -10z m149 -15 c-4 -8 -11 -12
-16 -9 -6 4 -5 10 3 15 19 12 19 11 13 -6z m-128 -17 c-9 -5 -21 -18 -27 -30
-10 -18 -9 -20 5 -15 10 4 15 3 11 -2 -3 -5 1 -12 7 -14 8 -4 9 -6 2 -6 -7 -1
-22 8 -35 20 -13 11 -19 18 -14 15 6 -2 16 4 23 15 10 15 10 19 0 19 -9 0 -9
3 1 9 8 5 21 7 29 4 12 -5 12 -7 -2 -15z m58 16 c9 -3 16 -11 16 -17 0 -7 -4
-7 -12 1 -17 17 -33 15 -18 -3 7 -9 8 -15 2 -15 -12 0 -23 26 -15 34 8 7 8 7
27 0z m-104 -24 c0 -5 -4 -10 -10 -10 -5 0 -10 5 -10 10 0 6 5 10 10 10 6 0
10 -4 10 -10z m62 -25 c-8 -16 -9 -16 -15 -1 -4 10 -3 15 3 11 6 -3 10 -1 10
6 0 7 3 10 6 6 3 -3 2 -13 -4 -22z m53 5 c-3 -5 -12 -10 -18 -10 -7 0 -6 4 3
10 19 12 23 12 15 0z m-44 -37 c-12 -20 -14 -14 -5 12 4 9 9 14 11 11 3 -2 0
-13 -6 -23z m-217 2 c-4 -8 -8 -15 -10 -15 -2 0 -4 7 -4 15 0 8 4 15 10 15 5
0 7 -7 4 -15z m-660 -3 c3 -5 -1 -9 -9 -9 -8 0 -12 4 -9 9 3 4 7 8 9 8 2 0 6
-4 9 -8z m822 -7 c12 -8 25 -11 29 -7 5 4 5 1 1 -5 -5 -10 -13 -9 -31 3 -23
15 -25 15 -31 0 -3 -9 -10 -16 -15 -16 -5 0 -4 9 3 20 15 24 18 24 44 5z
m-114 -40 c-8 -16 -9 -16 -15 -1 -4 10 -3 15 3 11 6 -3 10 -1 10 6 0 7 3 10 6
6 3 -3 2 -13 -4 -22z m83 -21 c-8 -16 -15 -24 -15 -18 0 15 25 65 28 55 1 -4
-4 -21 -13 -37z m-203 16 c-3 -8 -1 -12 3 -8 5 5 15 -1 23 -13 11 -16 12 -23
2 -32 -9 -9 -11 -8 -8 3 3 15 -29 53 -53 63 -8 3 -2 5 12 4 20 -1 25 -5 21
-17z m181 3 c-7 -2 -19 -2 -25 0 -7 3 -2 5 12 5 14 0 19 -2 13 -5z m-87 -12
c-4 -5 0 -12 6 -14 8 -3 6 -6 -4 -6 -18 -1 -24 10 -11 22 9 10 15 8 9 -2z m54
-17 c0 -17 -16 -19 -26 -2 -5 7 -3 8 6 3 10 -6 12 -4 7 9 -4 10 -3 15 3 11 6
-3 10 -13 10 -21z m-540 -9 c7 -8 9 -15 4 -15 -5 0 -2 -5 6 -11 13 -9 13 -10
-2 -6 -20 7 -33 -19 -13 -27 8 -3 16 0 18 7 2 7 7 9 11 6 4 -3 0 -11 -7 -18
-11 -9 -19 -7 -34 6 -10 10 -17 17 -14 16 2 -2 10 5 16 14 11 14 10 20 -4 30
-9 7 -11 13 -5 13 6 0 17 -7 24 -15z m275 5 c-3 -5 -2 -10 2 -10 5 0 14 -9 21
-21 8 -12 9 -18 4 -15 -6 3 -13 1 -15 -4 -3 -6 -4 -5 -3 2 1 7 -3 19 -11 26
-16 16 -17 32 -2 32 5 0 7 -4 4 -10z m115 0 c8 -5 11 -10 5 -10 -5 0 -17 5
-25 10 -8 5 -10 10 -5 10 6 0 17 -5 25 -10z m-508 -49 c-4 -10 -7 -11 -10 -3
-2 7 -8 9 -14 6 -5 -3 -4 3 3 15 15 22 31 9 21 -18z m88 29 c0 -5 -4 -10 -10
-10 -5 0 -10 5 -10 10 0 6 5 10 10 10 6 0 10 -4 10 -10z m492 -7 c-6 -3 -10
-8 -8 -12 3 -4 -4 -7 -15 -7 -19 0 -18 1 3 17 12 10 25 15 28 12 3 -3 -1 -8
-8 -10z m66 1 c12 -8 22 -21 22 -27 0 -7 -5 -4 -11 6 -5 9 -16 17 -24 17 -8 0
-17 5 -20 10 -9 15 8 12 33 -6z m42 6 c0 -5 -4 -10 -10 -10 -5 0 -10 5 -10 10
0 6 5 10 10 10 6 0 10 -4 10 -10z m-626 -25 c3 -9 -1 -18 -9 -21 -8 -4 -12
-10 -9 -15 3 -5 0 -9 -5 -9 -17 0 -13 18 7 29 15 9 15 11 -8 20 -23 9 -23 10
-4 10 12 1 25 -6 28 -14z m299 5 c-31 -13 -29 -24 3 -16 17 5 23 3 19 -4 -7
-11 -38 -14 -48 -4 -12 12 6 34 27 33 21 0 21 0 -1 -9z m267 -7 c0 -3 -7 -3
-15 1 -18 6 -19 1 -5 -25 6 -10 8 -19 6 -19 -10 0 -27 40 -21 50 5 9 35 3 35
-7z m-103 -7 c-3 -7 1 -23 9 -35 17 -24 10 -28 -11 -7 -8 7 -11 17 -7 21 4 5
-2 5 -13 1 -20 -7 -20 -7 0 13 24 24 29 26 22 7z m-68 -13 c-12 -15 -12 -16 6
-9 15 5 17 4 8 -5 -9 -9 -17 -7 -35 6 -15 11 -17 15 -5 12 9 -4 17 -2 17 3 0
6 5 10 11 10 8 0 7 -6 -2 -17z m182 -14 c-9 -22 -10 -22 -10 -3 -1 11 2 24 6
27 12 12 14 0 4 -24z m-435 -15 c1 -16 0 -23 -3 -16 -2 6 -9 12 -14 12 -6 0
-5 -9 1 -22 10 -21 10 -21 -3 -6 -8 10 -16 17 -18 15 -3 -1 4 6 15 16 10 10
16 20 12 24 -3 4 -12 1 -18 -5 -15 -15 -28 -15 -28 -1 0 5 4 8 9 4 5 -3 13 -1
16 5 12 19 30 4 31 -26z m374 26 c8 -5 11 -10 5 -10 -5 0 1 -7 15 -15 14 -8
19 -14 13 -15 -7 0 -21 8 -32 19 -10 10 -25 21 -32 24 -11 4 -11 6 1 6 8 0 22
-4 30 -9z m-480 -10 c8 -5 11 -10 5 -10 -5 0 -17 5 -25 10 -8 5 -10 10 -5 10
6 0 17 -5 25 -10z m170 1 c0 -12 -39 -25 -47 -17 -4 3 1 6 10 6 10 0 17 5 17
10 0 6 5 10 10 10 6 0 10 -4 10 -9z m60 -1 c0 -5 -4 -10 -10 -10 -5 0 -10 5
-10 10 0 6 5 10 10 10 6 0 10 -4 10 -10z m89 1 c11 -7 9 -10 -8 -16 -13 -4
-25 -4 -28 -1 -4 3 2 6 13 6 16 0 17 2 4 10 -8 5 -10 10 -5 10 6 0 16 -4 24
-9z m-52 -23 c0 -13 -1 -17 -4 -10 -3 6 -9 12 -14 12 -6 0 -5 -9 1 -22 10 -21
10 -21 -3 -6 -8 10 -16 17 -18 15 -3 -1 4 6 14 16 24 21 23 21 24 -5z m-280
-3 c5 -14 7 -14 24 1 20 18 41 11 33 -11 -3 -7 -13 -16 -22 -20 -13 -5 -13 -2
3 15 10 11 13 20 7 20 -6 0 -18 -10 -26 -22 -9 -12 -16 -17 -16 -10 0 7 -4 10
-10 7 -6 -3 -7 1 -4 10 5 11 2 14 -12 8 -12 -4 -15 -3 -10 5 10 17 26 15 33
-3z m217 7 c2 -4 1 -14 -4 -22 -7 -11 -12 -12 -21 -3 -6 6 -8 16 -5 22 8 13
23 14 30 3z m202 -4 c5 -8 2 -9 -10 -5 -14 6 -17 3 -12 -10 4 -10 4 -14 0 -10
-4 4 -18 -8 -31 -25 -12 -18 -23 -27 -23 -21 0 7 5 15 10 18 6 4 7 11 4 17 -5
7 -2 8 6 3 8 -5 11 -3 8 6 -3 8 -11 13 -17 12 -6 -2 -11 2 -11 7 0 14 17 13
26 -1 5 -8 10 -6 16 5 11 19 24 21 34 4z m75 -13 c5 4 6 -1 2 -10 -5 -13 -7
-14 -14 -3 -5 7 -8 18 -8 23 0 6 3 4 6 -3 2 -6 9 -10 14 -7z m-327 -6 c-2 -4
2 -9 8 -12 7 -2 11 -7 8 -10 -3 -3 -16 2 -28 12 -21 16 -22 17 -3 17 11 0 18
-3 15 -7z m156 -3 c-7 -7 -13 -7 -20 0 -6 6 -3 10 10 10 13 0 16 -4 10 -10z
m-352 -8 c7 -7 12 -17 12 -22 0 -6 -6 -4 -13 5 -7 9 -19 18 -27 22 -13 5 -13
6 1 6 8 1 20 -4 27 -11z m475 5 c-7 -2 -19 -2 -25 0 -7 3 -2 5 12 5 14 0 19
-2 13 -5z m-363 -13 c0 -5 -4 -10 -10 -10 -5 0 -10 5 -10 10 0 6 5 10 10 10 6
0 10 -4 10 -10z m60 -9 c0 -4 -7 -16 -16 -27 -15 -19 -15 -19 -6 1 5 11 7 26
4 34 -3 8 0 11 7 7 6 -4 11 -11 11 -15z m100 9 c0 -5 -4 -10 -10 -10 -5 0 -10
5 -10 10 0 6 5 10 10 10 6 0 10 -4 10 -10z m52 -26 c-8 -14 -9 -13 -9 10 0 18
3 24 9 18 7 -7 7 -16 0 -28z m40 19 c-6 -3 -9 -10 -6 -15 4 -7 2 -8 -5 -4 -9
6 -9 11 0 22 6 8 15 12 18 8 3 -4 0 -9 -7 -11z m144 -26 c-2 -7 -5 -4 -5 6 -1
10 -5 15 -11 12 -6 -4 -7 1 -3 11 6 15 7 15 15 0 5 -9 7 -22 4 -29z m-66 17
c0 -10 -6 -14 -15 -11 -25 10 -25 -10 0 -21 26 -12 32 -27 16 -36 -5 -3 -14 1
-21 9 -7 8 -9 15 -4 15 5 0 1 5 -9 11 -14 8 -16 14 -6 25 6 7 15 11 20 8 5 -3
9 0 9 5 0 6 2 11 5 11 3 0 5 -7 5 -16z m-360 -3 c0 -5 -9 -7 -20 -4 -11 3 -20
7 -20 9 0 2 9 4 20 4 11 0 20 -4 20 -9z m60 -1 c0 -5 -2 -10 -4 -10 -3 0 -8 5
-11 10 -3 6 -1 10 4 10 6 0 11 -4 11 -10z m103 -5 c8 -18 -11 -31 -25 -17 -11
11 -3 32 12 32 4 0 10 -7 13 -15z m57 5 c0 -5 -2 -10 -4 -10 -3 0 -8 5 -11 10
-3 6 -1 10 4 10 6 0 11 -4 11 -10z m-10 -31 c0 -12 -49 -43 -57 -36 -3 4 6 11
21 16 14 6 26 16 26 22 0 8 -6 7 -17 -2 -16 -12 -17 -12 -6 2 7 9 9 20 5 25
-4 4 1 2 11 -5 9 -7 17 -17 17 -22z m173 16 c-3 -9 -8 -14 -10 -11 -3 3 -2 9
2 15 9 16 15 13 8 -4z m-253 -26 c0 -6 5 -7 12 -3 7 4 8 3 4 -4 -4 -6 -13 -9
-21 -6 -8 4 -12 11 -9 16 4 6 -3 8 -17 4 -13 -3 -18 -3 -11 0 6 3 9 10 6 16
-4 6 2 5 15 -1 11 -7 21 -16 21 -22z m160 -1 c0 -5 -4 -8 -10 -8 -5 0 -10 4
-10 10 0 5 -6 8 -12 6 -7 -1 -10 -1 -5 1 4 3 4 9 1 15 -3 5 3 4 15 -4 12 -7
21 -16 21 -20z m116 16 c-5 -12 -2 -15 11 -10 15 6 16 5 6 -5 -15 -15 -40 2
-29 20 11 17 19 13 12 -5z m-185 -31 c-12 -20 -14 -14 -5 12 4 9 9 14 11 11 3
-2 0 -13 -6 -23z m-158 0 c-6 -16 -5 -16 10 -4 23 19 21 5 -2 -18 -13 -13 -21
-16 -24 -8 -4 12 9 47 18 47 2 0 1 -8 -2 -17z m187 -1 c0 -5 -10 -19 -22 -31
-19 -21 -22 -22 -33 -8 -7 9 -16 13 -20 9 -5 -4 -5 -1 -1 6 10 18 26 15 27 -5
0 -14 5 -12 22 10 22 29 27 32 27 19z m81 -9 c8 -9 9 -14 2 -10 -6 4 -13 2
-16 -5 -2 -7 -3 -5 -2 5 4 26 -14 21 -25 -8 -6 -16 -14 -23 -25 -19 -18 7 -19
14 -4 34 9 13 10 12 5 -2 -3 -10 -1 -20 4 -23 6 -4 10 0 10 7 0 15 19 38 31
38 4 0 13 -8 20 -17z m69 -18 c0 -5 -5 -3 -10 5 -8 13 -10 12 -10 -4 0 -11 -3
-17 -6 -13 -3 3 -3 15 1 28 6 17 9 19 16 8 5 -8 9 -18 9 -24z m-382 14 c-17
-10 -14 -39 4 -39 6 0 8 7 4 15 -8 22 2 18 14 -6 9 -15 8 -24 -2 -37 -11 -14
-11 -15 7 -7 11 4 28 8 38 9 10 0 15 6 13 13 -3 7 -1 15 5 19 5 3 7 15 4 27
-2 12 -2 16 1 9 3 -6 10 -9 16 -6 5 4 4 -4 -3 -17 -14 -26 -19 -88 -8 -95 10
-6 19 24 13 44 -3 9 1 6 9 -7 10 -17 16 -20 19 -10 3 8 9 10 14 6 10 -9 -16
-28 -28 -21 -4 3 -8 1 -8 -5 0 -22 19 -19 58 10 23 17 42 27 42 22 0 -4 -14
-16 -30 -25 -17 -9 -30 -24 -30 -33 0 -18 17 -20 23 -2 2 6 3 5 2 -4 -3 -20
13 -49 26 -49 6 0 7 5 3 12 -13 20 -13 62 -1 70 20 12 33 8 17 -5 -9 -7 -15
-18 -14 -24 1 -7 2 -20 3 -28 0 -8 6 -15 12 -15 5 0 8 4 5 8 -2 4 4 9 15 9 11
1 17 -2 14 -7 -3 -4 -2 -10 2 -13 5 -2 2 -2 -4 -1 -18 5 -44 -7 -38 -16 2 -4
19 -6 37 -4 18 1 27 0 20 -3 -10 -4 -10 -8 -1 -19 8 -10 8 -14 0 -14 -6 0 -11
4 -11 10 0 5 -7 7 -16 3 -11 -4 -12 -8 -4 -13 9 -5 8 -9 -2 -12 -8 -3 -22 0
-33 8 -11 8 -14 14 -6 14 7 0 3 8 -10 19 -13 10 -34 18 -46 16 -13 -1 -24 2
-24 6 -1 5 -3 14 -4 19 -1 6 -3 15 -4 21 0 5 -5 8 -10 5 -4 -3 -17 4 -27 15
-24 27 -65 48 -81 42 -14 -5 -14 -5 -17 47 -2 33 7 50 29 50 6 -1 2 -5 -7 -11z
m72 -19 c0 -5 -5 -10 -11 -10 -5 0 -7 5 -4 10 3 6 8 10 11 10 2 0 4 -4 4 -10z
m62 1 c-8 -4 -13 -12 -12 -17 1 -5 -4 -10 -12 -12 -9 -2 -8 0 2 7 8 6 11 11 7
11 -5 0 -5 5 -2 10 3 6 12 10 18 10 8 0 8 -3 -1 -9z m-185 -16 c0 -8 -4 -12
-9 -9 -5 3 -6 10 -3 15 9 13 12 11 12 -6z m403 -17 c0 -5 -4 -8 -10 -8 -5 0
-10 4 -10 10 0 5 -6 8 -12 6 -7 -1 -10 -1 -5 1 4 3 4 9 1 15 -3 5 3 4 15 -4
12 -7 21 -16 21 -20z m-190 6 c0 5 6 3 13 -3 8 -6 17 -9 21 -6 3 3 -1 -3 -9
-13 -15 -16 -17 -16 -29 0 -10 14 -15 15 -26 5 -9 -9 -9 -7 1 10 9 16 16 19
21 10 4 -7 8 -8 8 -3z m70 -4 c0 -5 -4 -10 -10 -10 -5 0 -10 5 -10 10 0 6 5
10 10 10 6 0 10 -4 10 -10z m60 0 c0 -5 -4 -10 -10 -10 -5 0 -10 5 -10 10 0 6
5 10 10 10 6 0 10 -4 10 -10z m-21 -28 c8 -14 5 -18 -12 -19 -12 0 -16 1 -9 4
6 3 12 9 12 14 0 6 -9 5 -22 -1 -21 -10 -21 -10 -6 3 10 8 14 18 10 22 -4 5
-1 5 5 1 7 -4 17 -15 22 -24z m32 -13 c-9 -22 -10 -22 -10 -3 -1 11 2 24 6 27
12 12 14 0 4 -24z m33 5 c3 -8 2 -12 -4 -9 -6 3 -10 10 -10 16 0 14 7 11 14
-7z m-74 -49 c-7 -8 -20 -15 -29 -14 -11 0 -9 3 7 9 12 5 22 15 22 21 0 7 3 9
6 6 4 -4 1 -13 -6 -22z m60 11 c0 -3 -4 -8 -10 -11 -5 -3 -10 -1 -10 4 0 6 5
11 10 11 6 0 10 -2 10 -4z m-25 -26 c3 -5 1 -18 -5 -27 -9 -15 -10 -14 -4 6 4
16 3 21 -5 17 -6 -4 -11 -2 -11 3 0 14 17 14 25 1z m-60 -209 c-2 -9 -4 -23
-5 -31 -1 -9 -5 -6 -10 8 -10 22 -30 31 -30 11 0 -5 5 -7 10 -4 6 3 10 3 10
-2 -1 -4 -17 -18 -37 -31 -26 -17 -39 -20 -47 -12 -8 8 -6 9 8 4 12 -4 17 -4
13 2 -3 6 -2 16 4 24 7 13 9 13 9 0 1 -12 3 -11 11 3 5 9 7 22 3 29 -4 7 -3 8
4 4 6 -4 19 2 29 12 19 19 33 11 28 -17z m-104 -34 c-15 -15 -30 1 -24 24 6
21 7 21 20 4 8 -12 9 -23 4 -28z m-69 19 c6 4 8 2 5 -4 -4 -5 -15 -9 -25 -7
-9 2 -19 4 -22 4 -3 1 2 6 10 11 10 6 16 6 18 0 2 -6 9 -7 14 -4z m-168 -27
c-3 -5 -10 -7 -15 -3 -5 3 -7 10 -3 15 3 5 10 7 15 3 5 -3 7 -10 3 -15z m60
-11 c-3 -4 -9 -8 -15 -8 -5 0 -9 4 -9 8 0 5 7 9 15 9 8 0 12 -4 9 -9z m266
-23 c0 -5 -4 -4 -9 4 -8 12 -12 12 -25 2 -16 -13 -13 -31 5 -31 6 0 7 4 4 10
-4 6 1 7 11 3 11 -4 13 -8 6 -11 -7 -2 -10 -8 -6 -13 3 -5 -10 -1 -29 8 -19
10 -30 20 -24 22 6 2 20 12 31 23 20 18 36 10 36 -17z m-152 -37 c15 -15 15
-28 0 -28 -6 0 -8 3 -4 7 3 4 -4 13 -16 20 -15 8 -18 12 -7 13 8 0 20 -5 27
-12z m-162 -7 c-3 -4 1 -16 8 -27 8 -10 11 -24 8 -32 -4 -12 -1 -12 19 -2 23
12 23 11 7 -5 -17 -18 -43 -12 -35 9 3 6 -1 20 -9 31 -17 23 -18 35 -3 35 5 0
8 -4 5 -9z m33 -7 c4 3 8 -5 8 -17 2 -21 1 -22 -13 -3 -8 11 -14 25 -13 30 0
6 3 5 6 -2 2 -6 8 -10 12 -8z m243 2 c6 4 5 -2 -1 -15 -14 -25 -23 -28 -14 -4
4 11 3 14 -5 9 -8 -5 -10 -1 -5 10 4 11 8 13 11 6 2 -7 8 -9 14 -6z m-47 -6
c3 -5 2 -10 -4 -10 -5 0 -13 5 -16 10 -3 6 -2 10 4 10 5 0 13 -4 16 -10z m-94
-37 c-12 -20 -14 -14 -5 12 4 9 9 14 11 11 3 -2 0 -13 -6 -23z m69 22 c0 -3
-11 -10 -25 -15 -14 -5 -25 -15 -25 -21 0 -8 6 -7 17 2 15 12 16 12 8 -1 -5
-8 -10 -21 -11 -28 -2 -8 -6 -17 -10 -20 -4 -4 -5 0 -1 9 3 9 0 22 -6 28 -9
10 -7 17 12 32 22 18 41 25 41 14z m46 -42 c-3 -4 -6 -1 -6 6 0 7 -4 9 -10 6
-6 -4 -7 1 -3 11 6 15 7 15 15 -1 6 -9 7 -19 4 -22z m-166 17 c0 -5 -4 -10
-10 -10 -5 0 -10 5 -10 10 0 6 5 10 10 10 6 0 10 -4 10 -10z m217 4 c-3 -3
-12 -4 -19 -1 -8 3 -5 6 6 6 11 1 17 -2 13 -5z m-73 -29 c11 -8 16 -18 12 -22
-4 -4 -12 0 -17 10 -6 9 -15 17 -21 17 -7 0 -6 -5 2 -15 7 -9 8 -15 2 -15 -12
0 -23 26 -15 34 9 9 16 7 37 -9z m56 11 c0 -2 -7 -9 -15 -16 -13 -11 -14 -10
-9 4 5 14 24 23 24 12z m13 -21 c-3 -9 -8 -14 -10 -11 -3 3 -2 9 2 15 9 16 15
13 8 -4z m-233 -27 c0 -5 -9 -4 -20 2 -11 6 -20 12 -20 14 0 2 9 2 20 -1 11
-3 20 -9 20 -15z m210 -53 c0 -8 -4 -15 -10 -15 -5 0 -7 7 -4 15 4 8 8 15 10
15 2 0 4 -7 4 -15z"/>
<path d="M2357 3232 c-14 -16 -14 -19 2 -40 12 -16 22 -21 35 -16 16 6 16 8 3
16 -9 4 -14 17 -12 28 5 27 -9 33 -28 12z m18 -9 c-1 -10 3 -25 9 -33 6 -8 1
-6 -12 4 -17 15 -19 22 -11 33 15 17 18 17 14 -4z"/>
<path d="M2280 3160 c-8 -5 -18 -6 -22 -4 -4 3 -8 0 -8 -6 0 -6 7 -10 16 -8
10 2 19 -3 21 -9 3 -7 0 -13 -7 -13 -6 0 -8 4 -5 10 4 6 -1 7 -11 3 -16 -6
-15 -8 4 -16 31 -14 51 5 31 30 -13 17 -13 17 5 3 16 -13 19 -13 15 -1 -7 19
-20 23 -39 11z"/>
<path d="M2326 3144 c-9 -24 -7 -28 9 -14 17 14 20 30 6 30 -5 0 -12 -7 -15
-16z"/>
<path d="M2362 3148 c-21 -21 -13 -32 10 -12 12 10 18 13 13 5 -5 -9 -2 -19
10 -28 14 -9 15 -13 4 -13 -12 0 -12 -2 1 -10 8 -5 11 -10 6 -10 -5 0 -3 -6 3
-14 10 -11 8 -17 -6 -25 -10 -6 -12 -11 -5 -11 6 0 12 -5 12 -11 0 -5 -3 -8
-7 -6 -5 3 -13 -1 -19 -7 -8 -9 -8 -17 1 -30 7 -9 16 -17 19 -17 19 3 27 0 22
-7 -3 -5 1 -9 9 -9 13 0 13 3 2 16 -14 17 -16 78 -4 98 4 6 3 14 -3 18 -6 4
-8 10 -5 15 3 5 -5 16 -17 24 -12 9 -16 16 -9 16 11 0 11 3 1 15 -15 18 -22
19 -38 3z m55 -152 c0 -8 -6 -12 -15 -9 -11 5 -11 7 0 14 7 5 13 9 14 9 0 0 1
-6 1 -14z"/>
<path d="M2174 3038 c-16 -18 -22 -27 -13 -20 9 6 20 8 24 4 5 -4 5 -2 1 5 -3
6 2 16 11 22 10 5 15 12 12 15 -3 3 -19 -9 -35 -26z"/>
<path d="M2180 2990 c0 -5 5 -10 11 -10 5 0 7 5 4 10 -3 6 -8 10 -11 10 -2 0
-4 -4 -4 -10z"/>
<path d="M2109 2953 c-18 -21 -25 -30 -13 -20 11 9 23 15 26 12 2 -3 10 6 16
20 6 14 10 25 9 25 -2 0 -19 -17 -38 -37z"/>
<path d="M1281 2707 c-6 -8 -7 -17 -3 -21 4 -5 0 -7 -8 -6 -27 4 -38 0 -44
-16 -3 -9 -2 -12 5 -9 6 4 19 -1 29 -10 13 -11 20 -13 25 -5 4 6 14 9 22 6 11
-4 13 -1 8 15 -4 11 -1 28 6 37 7 9 9 14 5 10 -5 -4 -15 -3 -21 2 -9 7 -16 6
-24 -3z m23 -5 c3 -5 -1 -9 -9 -9 -8 0 -12 4 -9 9 3 4 7 8 9 8 2 0 6 -4 9 -8z
m-17 -31 c9 8 13 8 13 1 0 -13 -21 -21 -37 -14 -7 2 -13 9 -13 15 0 8 4 7 12
-1 8 -8 15 -9 25 -1z"/>
<path d="M1182 2646 c4 -5 2 -16 -5 -24 -8 -11 -8 -14 0 -9 7 4 14 0 17 -11
12 -37 66 -80 66 -52 0 6 -6 10 -14 10 -19 0 -28 28 -16 50 10 19 -4 39 -17
26 -3 -3 -13 0 -22 6 -9 7 -13 8 -9 4z m26 -41 c-3 -3 -9 2 -12 12 -6 14 -5
15 5 6 7 -7 10 -15 7 -18z"/>
<path d="M960 2399 c0 -5 5 -7 10 -4 6 3 10 8 10 11 0 2 -4 4 -10 4 -5 0 -10
-5 -10 -11z"/>
<path d="M1165 2300 c3 -5 8 -10 11 -10 2 0 4 5 4 10 0 6 -5 10 -11 10 -5 0
-7 -4 -4 -10z"/>
<path d="M960 2340 c0 -5 5 -10 11 -10 5 0 7 5 4 10 -3 6 -8 10 -11 10 -2 0
-4 -4 -4 -10z"/>
<path d="M825 2223 c2 -10 4 -20 4 -22 2 -9 31 23 30 33 0 6 -3 6 -6 -2 -4 -9
-8 -10 -18 -2 -10 9 -13 7 -10 -7z"/>
<path d="M883 2203 c-13 -5 42 -58 59 -58 12 0 28 -27 22 -37 -3 -5 -2 -8 3
-7 4 1 11 0 16 -1 4 -1 10 -3 15 -4 18 -4 61 -39 57 -46 -3 -5 0 -12 6 -16 7
-4 9 -3 5 4 -3 6 2 16 11 22 16 10 16 11 1 6 -10 -3 -31 8 -54 29 -20 19 -42
31 -47 28 -7 -4 -8 1 -3 13 4 10 4 15 0 11 -4 -4 -13 -2 -21 4 -7 6 -13 8 -13
4 0 -4 -6 -2 -14 5 -8 6 -13 17 -10 24 6 15 -14 25 -33 19z"/>
<path d="M1000 2220 c0 -5 5 -10 11 -10 5 0 7 5 4 10 -3 6 -8 10 -11 10 -2 0
-4 -4 -4 -10z"/>
<path d="M1055 1931 c-3 -5 -2 -12 3 -15 5 -3 9 1 9 9 0 17 -3 19 -12 6z"/>
<path d="M2284 3244 c-18 -14 -18 -15 4 -4 12 6 22 13 22 15 0 8 -5 6 -26 -11z"/>
<path d="M2430 3235 c-7 -9 -11 -17 -9 -20 3 -2 10 5 17 15 14 24 10 26 -8 5z"/>
<path d="M2460 3216 c0 -2 8 -10 18 -17 15 -13 16 -12 3 4 -13 16 -21 21 -21
13z"/>
<path d="M2206 3168 c3 -5 10 -6 15 -3 13 9 11 12 -6 12 -8 0 -12 -4 -9 -9z"/>
<path d="M2198 3133 c7 -3 16 -2 19 1 4 3 -2 6 -13 5 -11 0 -14 -3 -6 -6z"/>
<path d="M2151 3103 c7 -12 15 -20 18 -17 3 2 -3 12 -13 22 -17 16 -18 16 -5
-5z"/>
<path d="M2456 3108 c3 -5 10 -6 15 -3 13 9 11 12 -6 12 -8 0 -12 -4 -9 -9z"/>
<path d="M2035 2970 c3 -5 8 -10 11 -10 2 0 4 5 4 10 0 6 -5 10 -11 10 -5 0
-7 -4 -4 -10z"/>
<path d="M1209 2953 c-13 -16 -12 -17 4 -4 9 7 17 15 17 17 0 8 -8 3 -21 -13z"/>
<path d="M1176 2945 c-9 -26 -7 -32 5 -12 6 10 9 21 6 23 -2 3 -7 -2 -11 -11z"/>
<path d="M1235 2940 c-3 -5 -1 -10 4 -10 6 0 11 5 11 10 0 6 -2 10 -4 10 -3 0
-8 -4 -11 -10z"/>
<path d="M2040 2940 c-9 -6 -10 -10 -3 -10 6 0 15 5 18 10 8 12 4 12 -15 0z"/>
<path d="M1486 2912 c-3 -5 1 -9 9 -9 8 0 12 4 9 9 -3 4 -7 8 -9 8 -2 0 -6 -4
-9 -8z"/>
<path d="M1795 2911 c-3 -5 -2 -12 3 -15 5 -3 9 1 9 9 0 17 -3 19 -12 6z"/>
<path d="M1830 2909 c0 -5 5 -7 10 -4 6 3 10 8 10 11 0 2 -4 4 -10 4 -5 0 -10
-5 -10 -11z"/>
<path d="M1899 2903 c-12 -16 -12 -17 2 -6 9 7 20 9 24 5 5 -4 5 -1 1 6 -9 16
-11 15 -27 -5z"/>
<path d="M1410 2888 c17 -14 19 -27 8 -44 -11 -16 3 -26 19 -13 10 9 13 8 13
-2 0 -11 2 -11 10 1 8 12 10 12 10 1 0 -8 2 -12 5 -9 3 3 -1 20 -9 39 -13 29
-15 30 -16 11 0 -13 -4 -20 -10 -17 -6 4 -8 10 -5 15 3 5 -5 14 -17 20 -19 9
-21 9 -8 -2z"/>
<path d="M1734 2892 c3 -6 -2 -15 -11 -21 -16 -9 -16 -10 -2 -11 20 0 33 27
17 36 -6 4 -8 3 -4 -4z"/>
<path d="M1832 2888 c-15 -8 -21 -17 -17 -29 5 -14 1 -17 -15 -14 -11 2 -25 7
-30 10 -11 7 -42 -8 -41 -18 3 -20 0 -19 -14 0 -10 14 -22 19 -35 16 -16 -4
-19 -2 -14 13 5 15 4 16 -4 4 -13 -17 -6 -30 14 -30 8 0 14 -5 14 -11 0 -6 -6
-9 -12 -6 -19 7 -50 -12 -42 -26 4 -7 2 -7 -7 1 -12 11 -11 15 5 27 18 13 18
14 -2 12 -12 0 -19 -3 -17 -5 2 -3 -6 -13 -18 -24 -12 -11 -17 -17 -11 -14 6
3 11 -1 11 -9 0 -11 -4 -12 -14 -4 -7 6 -13 9 -13 5 0 -4 -11 1 -25 10 -14 9
-22 20 -19 25 8 13 24 11 21 -3 -1 -7 4 -12 11 -10 8 1 11 -2 7 -8 -3 -5 -4
-10 -1 -10 3 0 10 9 16 20 9 16 8 19 -6 13 -11 -4 -15 -2 -11 4 3 5 1 10 -6
11 -38 3 -52 11 -49 27 3 14 1 15 -11 4 -8 -8 -11 -15 -7 -17 5 -2 6 -10 3
-18 -3 -8 1 -14 8 -14 7 0 9 -3 6 -6 -3 -4 -2 -15 4 -26 8 -15 14 -17 24 -8
10 8 14 8 17 -1 6 -19 41 -20 60 -2 12 11 18 12 18 4 0 -7 5 -9 10 -6 6 3 10
1 10 -6 0 -7 6 -5 13 6 16 21 41 11 32 -14 -5 -13 -4 -14 7 -3 7 7 13 16 14
20 3 24 18 40 35 37 12 -2 23 3 26 11 5 13 7 13 14 2 7 -10 9 -10 9 2 0 13 2
13 9 1 8 -13 12 -13 26 -1 9 8 23 15 31 17 8 2 21 4 29 6 17 4 21 22 5 22 -6
0 -15 6 -19 14 -7 11 -10 10 -15 -6 -3 -10 -16 -19 -28 -20 -23 -2 -23 -2 2
17 28 22 26 24 -8 8z m52 -17 c3 -5 -1 -11 -9 -14 -9 -4 -12 -1 -8 9 6 16 10
17 17 5z m-34 -15 c0 -2 -8 -10 -17 -17 -16 -13 -17 -12 -4 4 13 16 21 21 21
13z m-138 -41 c2 -15 -2 -19 -15 -17 -10 2 -24 -2 -32 -8 -9 -8 -14 -7 -18 4
-4 11 -1 13 10 9 10 -4 14 -2 10 4 -4 6 1 10 11 9 11 -1 16 6 15 18 -2 23 14
7 19 -19z m58 22 c0 -8 -6 -14 -14 -14 -8 0 -12 6 -9 14 3 7 9 13 14 13 5 0 9
-6 9 -13z m-240 -3 c0 -8 -19 -13 -24 -6 -3 5 1 9 9 9 8 0 15 -2 15 -3z m85
-33 c3 -5 2 -12 -3 -15 -5 -3 -9 1 -9 9 0 17 3 19 12 6z"/>
<path d="M1316 2861 c-3 -5 1 -11 9 -15 8 -3 15 -1 15 4 0 13 -18 22 -24 11z"/>
<path d="M1580 2846 c7 -7 13 -7 20 0 6 6 3 10 -10 10 -13 0 -16 -4 -10 -10z"/>
<path d="M1355 2841 c-11 -5 -26 -6 -32 -4 -7 3 -13 0 -13 -7 0 -7 8 -10 19
-7 13 3 18 1 14 -9 -2 -7 -10 -11 -17 -8 -8 3 -12 -2 -11 -13 2 -27 22 -59 31
-50 5 5 2 12 -6 17 -11 7 -12 10 -2 10 7 0 10 5 7 11 -4 5 0 18 7 27 16 18 31
42 26 41 -2 0 -12 -4 -23 -8z"/>
<path d="M1201 2786 c-9 -11 -9 -16 1 -22 7 -4 10 -4 6 1 -4 4 -3 14 3 22 6 7
9 13 6 13 -2 0 -10 -6 -16 -14z"/>
<path d="M1135 2730 c-3 -5 -1 -10 4 -10 6 0 11 5 11 10 0 6 -2 10 -4 10 -3 0
-8 -4 -11 -10z"/>
<path d="M1186 2711 c9 -9 34 -9 34 -1 0 5 -9 8 -20 7 -10 -1 -17 -3 -14 -6z"/>
<path d="M1158 2693 c7 -3 16 -2 19 1 4 3 -2 6 -13 5 -11 0 -14 -3 -6 -6z"/>
<path d="M595 2671 c-3 -5 -2 -12 3 -15 5 -3 9 1 9 9 0 17 -3 19 -12 6z"/>
<path d="M675 2671 c-3 -5 -2 -12 3 -15 5 -3 9 1 9 9 0 17 -3 19 -12 6z"/>
<path d="M796 2672 c-3 -5 1 -9 9 -9 8 0 12 4 9 9 -3 4 -7 8 -9 8 -2 0 -6 -4
-9 -8z"/>
<path d="M493 2629 c-2 -23 3 -25 10 -4 4 8 3 16 -1 19 -4 3 -9 -4 -9 -15z"/>
<path d="M548 2628 c5 -5 16 -8 23 -6 8 3 3 7 -10 11 -17 4 -21 3 -13 -5z"/>
<path d="M686 2627 c3 -10 9 -15 12 -12 3 3 0 11 -7 18 -10 9 -11 8 -5 -6z"/>
<path d="M817 2629 c7 -7 15 -10 18 -7 3 3 -2 9 -12 12 -14 6 -15 5 -6 -5z"/>
<path d="M933 2623 c0 -9 4 -10 14 -2 7 6 13 12 13 14 0 1 -6 2 -13 2 -8 0
-14 -6 -14 -14z"/>
<path d="M616 2621 c-3 -4 6 -6 19 -3 14 2 25 6 25 8 0 8 -39 4 -44 -5z"/>
<path d="M390 2610 c0 -5 6 -11 13 -13 9 -4 8 -8 -3 -16 -23 -16 -29 -13 -24
12 l5 22 -10 -22 c-6 -13 -16 -23 -23 -23 -10 0 -9 -3 1 -9 8 -5 21 -6 30 -3
14 5 14 3 3 -10 -11 -14 -10 -17 7 -23 11 -3 20 -9 20 -13 -4 -28 33 -43 47
-20 4 7 2 8 -4 4 -7 -4 -19 -3 -28 2 -11 6 -13 11 -5 16 6 4 11 2 11 -4 0 -6
8 -10 18 -8 9 2 18 -4 18 -12 1 -8 2 -21 3 -28 0 -7 6 -10 11 -7 17 10 11 -7
-7 -22 -10 -8 -12 -12 -5 -8 7 4 33 -5 58 -19 26 -14 50 -24 54 -21 4 3 14 -3
21 -12 12 -14 11 -15 -10 -8 -22 7 -23 7 -4 -12 16 -16 19 -17 24 -3 6 13 8
13 14 -2 4 -10 11 -15 16 -12 5 3 9 0 9 -5 0 -11 -15 -15 -35 -11 -5 1 -7 -2
-2 -6 11 -12 50 -13 65 -2 16 13 16 -4 0 -20 -9 -9 -9 -15 1 -24 10 -11 11 -9
5 7 -4 11 -4 17 1 13 4 -4 14 -3 21 3 8 7 14 7 19 -1 3 -5 1 -10 -6 -10 -8 0
-8 -4 1 -15 16 -19 29 -8 35 27 4 19 -2 30 -25 47 -17 12 -35 19 -40 16 -5 -3
-11 -1 -15 5 -4 6 -11 8 -16 5 -13 -9 -11 9 4 24 10 11 8 12 -8 7 -20 -6 -75
33 -75 54 0 5 -8 16 -17 26 -13 13 -15 18 -5 22 10 3 10 7 1 18 -8 9 -8 18 -2
27 12 14 9 45 -6 60 -13 13 -43 19 -36 7 10 -15 -23 -18 -44 -4 -22 16 -21 16
-26 -26 -2 -18 13 -40 27 -40 6 0 5 7 -2 15 -12 14 -7 19 13 16 5 -1 6 3 2 8
-3 6 3 8 15 6 11 -2 20 1 20 7 0 6 3 8 6 5 4 -4 1 -13 -6 -22 -8 -10 -9 -15
-1 -15 6 0 11 5 11 12 0 9 3 9 11 1 7 -7 8 -19 4 -30 -16 -38 -12 -110 5 -83
5 9 9 9 14 1 4 -6 2 -11 -4 -11 -7 0 -8 -6 -1 -18 7 -14 6 -19 -4 -19 -7 0
-11 6 -8 13 2 6 0 15 -6 19 -7 3 -8 0 -5 -9 4 -11 0 -16 -12 -16 -16 0 -17 2
-4 11 12 8 10 9 -9 4 -17 -5 -22 -4 -16 5 5 8 1 18 -10 27 -11 7 -13 13 -6 13
7 0 9 5 5 13 -5 8 -2 8 9 -2 9 -7 17 -10 17 -5 0 19 -16 30 -43 29 -34 -1 -41
9 -42 59 0 29 -5 40 -18 42 -9 1 -17 -1 -17 -6z m160 -20 c6 -11 8 -20 6 -20
-3 0 -10 9 -16 20 -6 11 -8 20 -6 20 3 0 10 -9 16 -20z m-80 0 c0 -5 -4 -10
-10 -10 -5 0 -10 5 -10 10 0 6 5 10 10 10 6 0 10 -4 10 -10z m-55 -39 c0 -19
-4 -27 -13 -24 -14 6 -12 34 3 45 6 4 10 8 10 8 0 0 0 -13 0 -29z m188 -145
c4 4 7 0 7 -9 0 -9 6 -16 13 -14 6 1 11 -4 10 -10 -2 -7 2 -14 7 -14 6 -1 16
-2 23 -3 16 -1 16 -38 -1 -44 -7 -2 -10 2 -7 10 6 15 -71 82 -84 73 -5 -3 -13
-1 -16 5 -4 6 -1 9 7 8 8 -2 12 5 10 17 -2 18 -1 18 11 -3 7 -12 16 -19 20
-16z m127 -100 c0 -6 5 -4 10 4 8 11 9 8 6 -14 -3 -16 -8 -31 -12 -35 -3 -3
-5 1 -3 9 1 8 -1 23 -6 33 -7 16 -8 16 -19 1 -10 -13 -12 -11 -10 13 1 15 2
30 3 33 3 8 31 -33 31 -44z"/>
<path d="M667 2606 c-3 -8 -2 -18 4 -21 5 -4 7 -11 4 -16 -11 -16 7 -10 22 9
8 9 12 12 9 5 -4 -6 -2 -14 4 -18 6 -4 8 -10 5 -15 -3 -5 0 -12 6 -15 6 -5 10
0 9 11 -4 32 -1 37 14 25 10 -8 16 -9 21 -1 3 5 12 10 18 10 7 0 3 -7 -7 -15
-10 -8 -23 -12 -27 -9 -5 3 -9 1 -9 -5 0 -18 17 -21 30 -6 11 14 15 13 27 -5
13 -18 16 -19 29 -5 9 8 19 13 24 10 4 -3 11 2 14 11 3 9 12 14 20 11 8 -3 22
3 32 14 9 10 12 19 6 19 -6 0 -13 -6 -15 -12 -4 -10 -6 -10 -6 0 -1 6 -6 12
-12 12 -5 0 -7 -5 -3 -11 4 -7 1 -10 -7 -7 -8 3 -14 10 -14 16 0 15 -10 16
-33 3 -14 -8 -15 -12 -3 -23 12 -11 13 -11 6 2 -8 13 -7 13 8 1 9 -7 17 -16
17 -19 0 -3 -3 -2 -7 1 -3 4 -15 0 -25 -10 -10 -9 -18 -14 -19 -12 0 2 -2 12
-4 22 -2 9 1 15 6 12 5 -4 6 1 2 10 -5 13 -7 14 -14 3 -7 -10 -9 -9 -9 4 0 9
6 18 13 21 6 3 2 4 -11 4 -13 -1 -21 -6 -18 -13 8 -20 -6 -25 -19 -7 -12 16
-50 29 -40 13 3 -4 -2 -10 -10 -14 -8 -3 -18 2 -23 11 -8 14 -10 14 -15 -1z
m83 -18 c9 -19 8 -20 -2 -6 -11 15 -13 15 -26 0 -11 -15 -12 -14 -2 6 6 12 13
22 15 22 2 0 9 -10 15 -22z m107 15 c-4 -3 -1 -13 6 -22 11 -14 10 -14 -5 -2
-16 12 -16 31 -1 31 4 0 3 -3 0 -7z"/>
<path d="M495 2570 c-4 -6 -12 -7 -18 -3 -9 5 -9 3 0 -8 10 -12 10 -18 1 -27
-7 -7 -8 -12 -4 -12 5 0 15 8 22 18 10 12 13 13 9 2 -6 -18 11 -47 22 -37 4 5
2 12 -6 16 -10 7 -9 10 3 14 22 8 20 25 -1 23 -10 0 -17 5 -15 12 3 15 -4 16
-13 2z"/>
<path d="M1112 2562 c-9 -7 -8 -13 8 -27 11 -10 20 -13 20 -7 0 6 -5 14 -10
17 -6 4 -8 11 -5 16 7 11 4 11 -13 1z"/>
<path d="M434 2543 c2 -10 6 -17 10 -16 15 3 16 11 2 22 -12 10 -14 9 -12 -6z"/>
<path d="M353 2514 c0 -16 13 -19 21 -5 3 5 0 11 -7 14 -8 3 -14 -1 -14 -9z"/>
<path d="M502 2463 c14 -17 25 -16 25 1 0 8 -8 14 -18 13 -14 -1 -15 -4 -7
-14z"/>
<path d="M440 2461 c0 -6 4 -13 10 -16 6 -3 7 1 4 9 -7 18 -14 21 -14 7z"/>
<path d="M493 2395 c0 -8 4 -12 9 -9 5 3 6 10 3 15 -9 13 -12 11 -12 -6z"/>
<path d="M838 2163 c7 -3 16 -2 19 1 4 3 -2 6 -13 5 -11 0 -14 -3 -6 -6z"/>
<path d="M820 1956 c0 -2 8 -10 18 -17 15 -13 16 -12 3 4 -13 16 -21 21 -21
13z"/>
<path d="M977 1949 c7 -7 15 -10 18 -7 3 3 -2 9 -12 12 -14 6 -15 5 -6 -5z"/>
<path d="M593 1895 c0 -8 4 -15 9 -15 4 0 8 4 8 9 0 6 -4 12 -8 15 -5 3 -9 -1
-9 -9z"/>
<path d="M626 1879 c-13 -13 -15 -19 -6 -19 7 0 10 -3 6 -7 -7 -8 -11 -9 -37
-12 -6 0 -8 -8 -5 -17 4 -11 2 -15 -8 -11 -11 4 -13 1 -9 -10 5 -12 3 -14 -8
-8 -8 5 -3 -4 10 -18 25 -28 20 -36 -9 -14 -9 6 0 -3 19 -21 20 -17 35 -37 33
-43 -1 -6 2 -8 8 -4 5 3 10 1 10 -5 0 -6 5 -8 10 -5 6 3 10 -4 11 -17 0 -16 2
-19 7 -8 8 17 32 25 32 10 0 -5 -4 -10 -10 -10 -5 0 -10 -5 -10 -12 0 -9 3 -9
12 0 7 7 16 12 22 12 6 0 5 -5 -2 -12 -7 -7 -12 -17 -12 -23 0 -5 5 -2 11 8 5
9 15 17 21 17 6 0 6 -6 -2 -15 -10 -13 -11 -18 -1 -28 10 -9 11 -8 5 7 -6 15
-4 17 7 11 8 -4 11 -5 7 0 -9 10 10 35 25 35 7 0 7 -4 -1 -12 -7 -7 -12 -16
-12 -21 0 -13 25 -2 26 11 3 25 5 27 14 12 6 -9 5 -19 -3 -28 -18 -22 -16 -38
5 -39 20 -2 20 -1 2 12 -18 13 -18 14 -1 21 11 4 16 13 12 22 -4 12 -3 13 10
2 12 -10 13 -16 4 -26 -7 -9 -8 -14 -1 -14 6 0 12 6 15 13 2 6 8 9 12 5 4 -4
2 -14 -5 -23 -8 -10 -9 -15 -1 -15 6 0 11 4 11 9 0 5 11 8 25 7 19 -1 23 -5
19 -20 -4 -12 -2 -16 5 -12 6 4 11 13 11 21 0 8 4 16 8 19 12 7 11 -26 -1 -44
-9 -12 -9 -13 3 -2 20 17 35 15 20 -3 -7 -9 -8 -15 -2 -15 5 0 13 7 16 16 3 8
11 12 17 8 8 -4 7 -9 -2 -16 -11 -8 -10 -9 3 -4 11 3 25 -4 38 -21 11 -14 20
-21 20 -15 0 6 -5 14 -10 17 -6 4 -7 12 -3 18 13 22 11 58 -3 53 -8 -3 -25 7
-38 21 -24 26 -26 26 -45 9 -12 -11 -21 -13 -25 -7 -4 6 -13 8 -21 4 -20 -7
-19 11 1 28 14 11 14 13 -1 21 -8 5 -13 13 -10 19 4 5 1 9 -4 9 -6 0 -11 7
-11 16 0 14 -3 14 -15 4 -12 -10 -13 -15 -4 -21 7 -4 13 -23 14 -42 2 -27 -1
-34 -12 -30 -12 5 -12 7 -1 14 10 7 10 9 -2 9 -13 0 -13 1 0 10 8 5 11 12 6
17 -4 4 -12 0 -17 -10 -8 -13 -14 -15 -28 -7 -10 5 -21 6 -25 3 -3 -3 -6 -1
-6 5 0 7 -6 11 -12 9 -7 -1 -13 7 -13 17 0 11 -6 21 -14 24 -9 3 -11 0 -6 -9
4 -8 0 -7 -10 3 -15 14 -16 19 -5 33 12 15 11 15 -14 4 -22 -11 -29 -10 -42 3
-14 14 -14 19 1 47 11 22 21 30 33 27 22 -7 49 9 33 18 -6 4 -11 1 -11 -6 -1
-9 -4 -8 -13 3 -12 16 -18 19 -38 19 -5 0 -8 4 -5 8 12 20 -10 28 -28 11z m21
-6 c-4 -3 0 -15 10 -25 9 -10 13 -19 10 -19 -4 -1 -11 -3 -17 -4 -5 -1 -13 -3
-17 -4 -5 -1 -1 -6 7 -11 11 -7 11 -10 2 -10 -7 0 -11 -4 -7 -9 3 -5 1 -12 -4
-15 -5 -4 -13 -1 -17 5 -3 6 -1 15 6 19 8 5 9 10 2 14 -11 7 -15 3 -25 -27 -4
-10 -3 -16 2 -13 11 7 23 -22 15 -36 -4 -6 -1 -8 7 -6 8 3 13 11 11 18 -3 11
0 11 12 0 18 -14 22 -25 6 -15 -12 8 -13 -5 -1 -23 7 -11 9 -11 14 2 9 23 27
20 27 -5 0 -11 4 -18 9 -15 5 3 19 -2 32 -12 13 -12 18 -21 12 -25 -6 -4 -22
2 -35 13 -14 11 -28 16 -32 13 -3 -3 -6 -1 -6 6 0 7 -4 10 -10 6 -5 -3 -24 8
-42 24 -20 19 -27 31 -18 31 9 0 7 5 -8 16 -23 16 -23 17 -5 36 10 11 17 23
16 27 -2 3 1 6 6 6 11 0 26 13 27 26 3 16 4 19 11 19 3 0 3 -3 0 -7z m308
-253 c-3 -5 -2 -10 2 -10 16 0 63 -51 57 -61 -4 -6 -15 -2 -28 10 -12 12 -25
19 -28 16 -3 -3 -11 2 -19 12 -12 14 -12 16 0 8 11 -6 13 -4 8 7 -3 9 -3 19 0
22 10 10 15 7 8 -4z m-51 -11 c3 -3 -4 -5 -14 -6 -11 -1 -22 2 -24 6 -5 8 30
8 38 0z"/>
<path d="M629 1833 c-12 -16 -12 -17 2 -6 9 7 20 9 24 5 5 -4 5 -1 1 6 -9 16
-11 15 -27 -5z"/>
<path d="M700 1686 c0 -3 9 -10 20 -16 11 -6 20 -8 20 -6 0 3 -9 10 -20 16
-11 6 -20 8 -20 6z"/>
<path d="M954 1588 c-4 -7 -3 -10 1 -5 5 4 20 -3 34 -15 l26 -23 -24 28 c-28
31 -28 31 -37 15z"/>
<path d="M577 1869 c7 -7 15 -10 18 -7 3 3 -2 9 -12 12 -14 6 -15 5 -6 -5z"/>
<path d="M875 1870 c-4 -6 -11 -8 -16 -5 -5 3 -6 -1 -3 -9 8 -21 11 -20 24 4
11 20 6 29 -5 10z"/>
<path d="M555 1851 c3 -5 1 -12 -5 -16 -5 -3 -10 -11 -10 -18 0 -6 7 -2 15 9
17 23 19 34 4 34 -5 0 -8 -4 -4 -9z"/>
<path d="M795 1840 c-15 -17 -16 -20 -3 -20 9 0 19 7 22 16 10 25 1 27 -19 4z"/>
<path d="M510 1830 c0 -5 5 -10 11 -10 5 0 7 5 4 10 -3 6 -8 10 -11 10 -2 0
-4 -4 -4 -10z"/>
<path d="M515 1759 c-4 -6 -5 -12 -2 -15 2 -3 7 2 10 11 7 17 1 20 -8 4z"/>
<path d="M573 1717 c0 -8 6 -14 14 -14 9 0 10 4 2 14 -6 7 -12 13 -14 13 -1 0
-2 -6 -2 -13z"/>
<path d="M599 1663 c-12 -16 -12 -17 2 -6 9 7 20 9 24 5 5 -4 5 -1 1 6 -9 16
-11 15 -27 -5z"/>
<path d="M975 1519 c-4 -6 -5 -12 -2 -15 2 -3 7 2 10 11 7 17 1 20 -8 4z"/>
</g>
</svg>
